<svg width="612" height="933" viewBox="0 0 612 933" fill="none" xmlns="http://www.w3.org/2000/svg">
<g clip-path="url(#clip0_185_581)">
<path d="M285.836 388.592C285.691 388.204 285.552 387.814 285.407 387.426C273.109 387.677 260.809 387.924 247.113 388.203C256.548 391.719 264.272 394.642 272.051 397.43C272.868 397.724 274.211 397.516 274.917 397.002C278.623 394.292 282.205 391.408 285.833 388.587L285.836 388.592ZM335.704 513.626C336.083 516.482 336.366 518.63 336.668 520.876C343.76 518.968 345.382 515.954 345.852 507.377C346.095 503.012 347.541 498.719 349.516 494.418C349.146 500.503 350.312 505.75 356.227 507.827C358.047 508.466 361.815 506.51 363.271 504.639C367.361 499.388 366.473 495.623 359.559 486.644C366.488 490.148 373.599 491.997 375.063 498.707C376.402 504.854 317.31 632.463 281.686 643.001C223.841 660.115 32.2598 662.501 75.3187 549.421C75.6927 548.447 76.6628 547.699 77.3565 546.846C76.8176 546.534 76.2787 546.222 75.737 545.919C71.5291 547.188 67.3184 548.452 62.0585 550.035C69.3205 532.707 78.9529 517.34 82.8542 497.873C79.0797 499.774 76.7296 500.842 74.4837 502.103C53.8912 513.714 32.083 520.823 8.15047 520.626C3.73164 520.59 0.343207 519.754 -2.57581 516.146C-6.5602 511.224 -11.0726 506.741 -15.5546 501.846C2.91453 498.976 20.6217 496.223 38.3288 493.469C38.2871 492.958 38.2453 492.446 38.1978 491.936C29.2314 491.152 20.166 490.942 11.3241 489.432C-1.31993 487.265 -13.8199 484.212 -26.3479 481.404C-30.7983 480.404 -33.6946 477.686 -35.428 473.215C-38.3151 465.766 -41.7856 458.547 -45.6229 449.842C-31.9183 455.572 -19.1949 460.256 -4.37579 458.576C-14.8237 450.917 -24.614 443.848 -34.2725 436.613C-39.5572 432.655 -44.5812 428.343 -49.78 424.271C-67.9858 410.018 -74.9975 390.062 -79.1847 367.02C-49.3798 390.059 -21.154 413.166 13.8934 425.793C12.3586 424.304 10.7779 422.853 9.29759 421.316C-8.51793 402.818 -26.3076 384.301 -44.1145 365.792C-45.8372 364.002 -47.5026 362.14 -49.3486 360.477C-59.1758 351.605 -63.0337 339.813 -65.4751 327.386C-66.8973 320.158 -68.0033 312.858 -68.1324 305.108C-53.7677 320.157 -39.4029 335.207 -25.0381 350.256C-29.967 318.534 -31.9847 286.786 -28.8259 254.447C-15.2581 277.31 -1.69032 300.172 12.262 323.683C10.0928 308.938 7.16451 295.302 6.34456 281.547C5.61542 269.332 6.85642 256.952 7.89065 244.705C8.93592 232.295 16.4018 222.708 24.2672 213.971C36.0725 200.858 48.6334 188.417 61.1599 175.978C69.0739 168.124 79.9727 166.683 90.176 164.518C105.526 161.26 121.094 159.022 136.575 156.382C137.555 156.212 138.577 156.295 140.967 156.222C137.592 158.801 135.264 160.6 132.916 162.373C103.244 184.73 85.5471 213.5 85.3623 251.544C85.2643 272.07 85.6553 292.58 91.5192 312.516C100.135 341.82 118.943 363.49 143.286 380.803C152.295 387.206 161.859 392.854 171.403 398.447C173.357 399.595 176.623 399.773 178.822 399.033C206.075 389.822 233.227 380.309 260.472 371.067C262.544 370.362 265.433 370.477 267.417 371.371C279.441 376.825 291.453 382.342 303.154 388.441C307.049 390.469 310.009 394.287 314.563 398.324C307.396 400.896 302.038 403.214 296.456 404.758C273.578 411.102 255.8 425.984 237.467 439.849C222.629 451.075 208.71 463.394 197.469 478.383C113.309 590.6 275.203 606.062 335.692 513.647L335.704 513.626ZM147.363 552.69C136.149 526.021 148.596 506.089 165.934 487.503C165.545 487.173 165.15 486.846 164.763 486.522C159.258 486.76 153.744 486.995 148.238 487.232C148.162 486.853 148.081 486.476 148.005 486.097C154.958 483.013 161.913 479.934 168.86 476.853C168.712 476.272 168.561 475.7 168.406 475.122C157.99 477.135 147.57 479.156 137.151 481.163C119.96 484.47 113.29 501.601 110.805 519.375C123.722 502.894 131.239 498.013 140.727 499.003C137.813 508.077 132.651 517.332 132.434 526.696C132.199 536.74 138.904 545.578 147.363 552.69ZM53.61 356.055C53.2851 356.097 52.9601 356.138 52.6409 356.176C51.011 368.355 49.0904 380.501 47.8834 392.719C47.3135 398.495 46.7941 404.828 48.5215 410.174C52.8965 423.708 57.6169 437.284 63.9083 450.004C76.1584 474.797 107.059 479.876 130.197 472.378C124.905 469.807 119.016 467.537 113.839 464.181C111.424 462.617 108.93 458.868 109.049 456.229C109.25 452.051 111.611 447.974 113.308 443.122C123.053 454.074 133.692 461.211 147.099 464.549C163.975 468.755 179.264 468.437 185.268 462.51C165.273 457.232 161.353 454.683 159.731 445.9C186.967 455.302 206.991 451.014 217.972 434.535C209.217 437.13 199.487 440.821 189.418 442.795C178.352 444.962 168.427 441.959 161.982 431.693C158.525 426.189 155.286 420.545 151.557 414.299C147.471 424.676 141.964 434.12 148.775 446.585C144.736 445.63 142.052 445.664 140.242 444.429C136.313 441.748 132.311 438.851 129.263 435.259C121.997 426.696 119.043 416.141 117.147 405.312C116.12 399.47 115.533 393.542 114.889 388.688C111.497 398.24 107.945 408.535 104.175 418.753C101.806 425.175 97.5946 430.084 90.4072 430.686C83.4011 431.276 78.6505 426.992 75.1878 421.447C65.8375 406.458 58.7085 390.645 57.019 372.719C56.4876 367.102 54.7828 361.601 53.6215 356.05L53.61 356.055Z" fill="black" fill-opacity="0.18"/>
</g>
<defs>
<clipPath id="clip0_185_581">
<rect width="694.727" height="694.727" fill="white" transform="translate(-308 312.513) rotate(-26.7331)"/>
</clipPath>
</defs>
</svg>
