<svg width="157" height="50" viewBox="0 0 157 50" fill="none" xmlns="http://www.w3.org/2000/svg">
<g clip-path="url(#clip0_758_11443)">
<path d="M19.636 25.6383V22.4675H19.6942H22.2283V24.0125H20.2405V25.6577L39.3109 33.3408V0.407227H0V33.441L19.6393 25.6416L19.636 25.6383ZM26.9668 7.21439H28.8739V14.306C28.8739 16.4522 30.2411 17.7775 32.0221 17.7775C33.8031 17.7775 35.1703 16.4684 35.1703 14.3222V7.22085H37.0774V14.2543C37.0774 17.9358 34.7437 19.9237 32.0253 19.9237C29.307 19.9237 26.9733 17.9358 26.9733 14.2543V7.22085L26.9668 7.21439ZM16.087 7.21439H18.3108L24.1289 16.4102V7.22085H26.0327V19.4356H23.8186L18.0005 10.2398V19.4356H16.087V7.21439ZM2.92521 7.21439H5.3688L8.9243 15.3985C10.0976 12.6575 11.2451 9.88424 12.3764 7.21439H14.7392L15.1594 19.4356H13.2523L12.9614 10.4143L9.55136 18.3722H8.19704L4.70295 10.4337L4.41205 19.4388H2.50501L2.90904 7.22409L2.92521 7.21439Z" fill="white"/>
<path d="M2.43713 39.165H0V49.9996H2.55996V39.1715H2.4339" fill="white"/>
<path d="M12.9524 39.166H10.5605V49.9941H13.0397V39.166H12.9557" fill="white"/>
<path d="M18.0176 39.1653H15.8164V49.9934H18.2956V39.1977H18.2762C18.1899 39.196 18.1042 39.1841 18.0208 39.1621" fill="white"/>
<path d="M21.4226 39.1653C21.3395 39.1885 21.2536 39.2005 21.1673 39.2009H21.0703V49.9967H23.5462V39.1621H21.4226V39.1653Z" fill="white"/>
<path d="M26.3262 39.166V50.0006H28.8021V39.1692H26.3262V39.166Z" fill="white"/>
<path d="M31.7217 39.1722H31.5859V50.0003H34.0651V39.1689H31.7217" fill="white"/>
<path d="M36.9769 39.1722H36.8477V50.0003H39.3268V39.1689H36.9769" fill="white"/>
<path d="M7.67259 39.166H5.29688V49.9941H7.77279V39.166H7.66936" fill="white"/>
<path d="M54.1081 4.00165L50.2908 12.9066H48.7684L44.8412 4.02104L44.518 14.096H42.375L42.8404 0.426758H45.5749L49.5797 9.58378C50.8985 6.51636 52.1882 3.41338 53.4585 0.426758H56.1122L56.5776 14.096H54.4314L54.1081 4.00165Z" fill="white"/>
<path d="M67.0205 11.5781H61.0602L60.1584 14.096H57.9863L62.8606 0.426758H65.2913L70.172 14.096H67.9094L67.0076 11.5781H67.0205ZM61.9135 9.17652H66.164L64.0371 3.23237L61.9103 9.18944L61.9135 9.17652Z" fill="white"/>
<path d="M82.4485 17.3996C82.0301 17.3816 81.6205 17.2728 81.2482 17.0808C80.876 16.8888 80.5499 16.6182 80.2926 16.2877L78.6474 14.413C78.3403 14.469 78.0286 14.495 77.7165 14.4905C73.8216 14.4905 71.252 11.1128 71.252 7.12743C71.252 2.63458 74.1836 0.0390625 77.7165 0.0390625C81.2494 0.0390625 84.181 2.62488 84.181 7.12743C84.181 9.86193 82.9851 12.2991 80.9843 13.5532L81.495 14.0994C81.9831 14.6263 82.4227 14.8687 82.8817 14.8687C83.3406 14.8687 83.7511 14.594 84.1746 14.3225L84.821 16.4719C84.1346 17.0129 83.3036 17.339 82.4324 17.4093M73.4467 7.11127C73.4467 10.0591 75.4183 12.0922 77.7133 12.0922C80.0082 12.0922 81.9799 10.0623 81.9799 7.11127C81.9799 4.16021 79.9629 2.44387 77.7133 2.44387C75.4636 2.44387 73.4467 4.16344 73.4467 7.11127Z" fill="white"/>
<path d="M94.2921 3.51348C93.0984 2.84375 91.7645 2.46294 90.3972 2.40158C89.0623 2.40158 88.0085 2.81208 88.0085 3.8658C88.0085 5.17487 89.6829 5.44638 91.4218 5.99586C93.3289 6.6003 95.3329 7.51826 95.3329 10.1752C95.3329 12.8321 93.0897 14.5678 90.4457 14.5678C88.7938 14.5275 87.1755 14.0919 85.7266 13.2976L86.2534 10.896C87.4332 11.5424 88.9394 12.1469 90.3487 12.1469C91.9164 12.1469 93.1899 11.6976 93.1899 10.2528C93.1899 9.12147 91.8549 8.74976 90.3196 8.3134C88.2704 7.70897 85.8817 6.86858 85.8817 4.03711C85.8817 1.52563 87.7435 0 90.3519 0C91.9276 0.0487434 93.4783 0.406772 94.9159 1.05372L94.2953 3.51348H94.2921Z" fill="white"/>
<path d="M106.493 8.35552V0.426758H108.636V8.29734C108.636 12.4185 106.015 14.6455 102.957 14.6455C99.8995 14.6455 97.291 12.4185 97.291 8.29734V0.426758H99.4308V8.35552C99.4308 10.7571 100.966 12.2342 102.97 12.2342C104.974 12.2342 106.526 10.77 106.526 8.35552" fill="white"/>
<path d="M109.988 0.429688H120.632V2.83126H116.382V14.099H114.239V2.83126H109.988V0.429688Z" fill="white"/>
<path d="M44.671 31.7728H42.5312V18.1035H45.0298L51.5784 28.3951V18.1035H53.7214V31.7728H51.2228L44.671 21.4812V31.7728Z" fill="white"/>
<path d="M64.3218 29.2519H58.3454L57.4436 31.7699H55.2715L60.1457 18.1006H62.5829L67.4571 31.7699H65.1946L64.3218 29.2519ZM59.2149 26.8503H63.4491L61.3223 20.8933L59.1955 26.8503H59.2149Z" fill="white"/>
<path d="M78.2217 32.0448C77.2521 32.0448 76.4989 31.5761 75.8008 30.4642C75.1026 29.3523 74.482 28.0045 73.8 26.8506H71.1463V31.7701H69.0098V18.1008H74.5337C75.0972 18.0873 75.6575 18.189 76.1803 18.3996C76.7031 18.6102 77.1773 18.9254 77.5741 19.3257C77.9708 19.7261 78.2816 20.2032 78.4874 20.7279C78.6933 21.2526 78.7899 21.8138 78.7712 22.3771C78.8039 23.256 78.5651 24.1236 78.0875 24.8621C77.6098 25.6006 76.9164 26.1741 76.1014 26.5047L77.4525 28.8481C77.5434 29.0359 77.6839 29.1953 77.8588 29.3092C78.0336 29.4231 78.2362 29.4872 78.4448 29.4946C78.8777 29.4328 79.2796 29.2347 79.5922 28.9289L80.2387 31.0784C79.717 31.6502 78.9941 31.9978 78.2217 32.048M71.1528 20.5024V24.5459H74.1782C75.6844 24.5459 76.6315 23.8445 76.6315 22.3771C76.6315 21.207 75.8105 20.5024 74.537 20.5024H71.1528Z" fill="white"/>
<path d="M83.9418 18.1035H81.7988V31.7728H83.9418V18.1035Z" fill="white"/>
<path d="M88.8774 25.0561L94.4627 18.1035H97.1778L91.5311 24.9559L97.2425 31.7728H94.3076L88.8774 25.1725V31.7728H86.7344V18.1035H88.8774V25.0561Z" fill="white"/>
<path d="M108.281 21.7563C108.282 22.2428 108.187 22.7247 108 23.1741C107.814 23.6234 107.54 24.0314 107.195 24.3744C107.752 24.6937 108.211 25.1591 108.522 25.7202C108.834 26.2813 108.986 26.9168 108.963 27.5582C108.963 30.0761 107.101 31.7602 104.664 31.7602H98.7168V18.1006H104.367C106.445 18.1006 108.294 19.4484 108.294 21.7531M100.86 20.5022V23.7053H104.011C105.33 23.7053 106.138 23.0815 106.138 21.9082C106.138 21.0096 105.424 20.5022 104.309 20.5022H100.847H100.86ZM100.86 25.9518V29.3747H104.522C105.889 29.3747 106.82 28.6895 106.82 27.4806C106.82 26.511 106.012 25.9582 104.848 25.9582L100.86 25.9518Z" fill="white"/>
<path d="M118.625 29.2519H112.655L111.753 31.7699H109.574L114.455 18.1006H116.892L121.766 31.7699H119.504L118.625 29.2519ZM113.518 26.8503H117.768L115.641 20.8933L113.514 26.8503H113.518Z" fill="white"/>
<path d="M126.253 23.7858L129.466 18.1035H132.135L127.306 26.2456V31.7728H125.151V26.2844L120.215 18.1035H122.995L126.253 23.7858Z" fill="white"/>
<path d="M133.531 18.1035H142.843V20.5051H135.674V23.6275H142.116V26.0323H135.674V29.3712H142.982V31.7728H133.531V18.1035Z" fill="white"/>
<path d="M150.048 28.9995L153.926 18.1035H156.098L151.224 31.7728H148.79L143.916 18.1035H146.166L150.048 28.9995Z" fill="white"/>
<path d="M51.5941 43.7071V35.7783H53.7371V43.636C53.7371 47.7571 51.1157 49.9841 48.058 49.9841C45.0003 49.9841 42.3789 47.7571 42.3789 43.636V35.7783H44.5219V43.7071C44.5219 46.1087 46.0572 47.5858 48.0612 47.5858C50.0652 47.5858 51.6006 46.1216 51.6006 43.7071" fill="white"/>
<path d="M58.516 49.4476H56.373V35.7783H58.8716L65.4202 46.0699V35.7783H67.5632V49.4476H65.0646L58.516 39.156V49.4476Z" fill="white"/>
<path d="M72.5024 35.7783H70.3594V49.4476H72.5024V35.7783Z" fill="white"/>
<path d="M80.1831 46.6743L84.065 35.7783H86.2371L81.3629 49.4476H78.9257L74.0547 35.7783H76.3044L80.1831 46.6743Z" fill="white"/>
<path d="M87.791 35.7783H97.1V38.1799H89.9308V41.3055H96.3727V43.7071H89.9308V47.046H97.2422V49.4476H87.791V35.7783Z" fill="white"/>
<path d="M108.632 49.7226C107.663 49.7226 106.91 49.2539 106.212 48.142C105.513 47.0301 104.893 45.6822 104.211 44.5283H101.557V49.4543H99.4141V35.7785H104.938C105.501 35.765 106.062 35.8667 106.585 36.0773C107.107 36.288 107.582 36.6031 107.978 37.0034C108.375 37.4038 108.686 37.8809 108.892 38.4056C109.098 38.9303 109.194 39.4915 109.176 40.0548C109.207 40.9326 108.967 41.7988 108.49 42.536C108.012 43.2732 107.32 43.8457 106.506 44.176L107.857 46.5194C107.945 46.7102 108.085 46.8729 108.26 46.9898C108.435 47.1067 108.639 47.1732 108.849 47.182C109.282 47.1203 109.684 46.9221 109.997 46.6163L110.643 48.7658C110.121 49.3377 109.398 49.6852 108.626 49.7355M101.557 38.1801V42.2237H104.582C106.089 42.2237 107.036 41.5223 107.036 40.0548C107.036 38.8847 106.215 38.1801 104.941 38.1801H101.557Z" fill="white"/>
<path d="M119.997 38.8648C118.804 38.1951 117.47 37.8143 116.102 37.7529C114.767 37.7529 113.714 38.1634 113.714 39.2171C113.714 40.51 115.391 40.7977 117.127 41.3472C119.034 41.9516 121.038 42.8696 121.038 45.5265C121.038 48.1834 118.804 49.9192 116.151 49.9192C114.499 49.8788 112.881 49.4432 111.432 48.6489L111.959 46.2473C113.138 46.8938 114.645 47.4982 116.057 47.4982C117.625 47.4982 118.898 47.0489 118.898 45.6041C118.898 44.4728 117.563 44.1011 116.028 43.6647C113.979 43.0603 111.59 42.2199 111.59 39.3884C111.59 36.8899 113.452 35.3643 116.06 35.3643C117.636 35.413 119.187 35.771 120.624 36.418L120.004 38.8777L119.997 38.8648Z" fill="white"/>
<path d="M125.276 35.7783H123.133V49.4476H125.276V35.7783Z" fill="white"/>
<path d="M126.783 35.7783H137.427V38.1799H133.177V49.4476H131.034V38.1799H126.783V35.7783Z" fill="white"/>
<path d="M143.573 41.4607L146.786 35.7783H149.456L144.63 43.9204V49.4476H142.471V43.9592L137.535 35.7783H140.315L143.573 41.4607Z" fill="white"/>
</g>
<defs>
<clipPath id="clip0_758_11443">
<rect width="156.099" height="50" fill="white" transform="translate(0.451172)"/>
</clipPath>
</defs>
</svg>
