<svg width="965" height="309" viewBox="0 0 965 309" fill="none" xmlns="http://www.w3.org/2000/svg">
<g clip-path="url(#clip0_1199_1527)">
<path d="M121.351 158.445V138.849H121.71H137.371V148.397H125.086V158.565L242.941 206.046V2.5166H0V206.666L121.371 158.465L121.351 158.445ZM166.655 44.5849H178.441V88.411C178.441 101.675 186.89 109.865 197.897 109.865C208.903 109.865 217.353 101.775 217.353 88.5109V44.6248H229.138V88.0914C229.138 110.843 214.716 123.128 197.917 123.128C181.117 123.128 166.695 110.843 166.695 88.0914V44.6248L166.655 44.5849ZM99.4177 44.5849H113.161L149.117 101.415V44.6248H160.882V120.112H147.199L111.243 63.2819V120.112H99.4177V44.5849ZM18.0778 44.5849H33.1792L55.1522 95.1627C62.4033 78.2235 69.4945 61.0846 76.4859 44.5849H91.088L93.6848 120.112H81.8993L80.1015 64.3606L59.0274 113.54H50.6577L29.0643 64.4804L27.2665 120.132H15.481L17.9779 44.6448L18.0778 44.5849Z" fill="#D62E1F"/>
<path d="M15.0615 242.042H0V309H15.8205V242.082H15.0415" fill="#D62E1F"/>
<path d="M80.0435 242.042H65.2617V308.96H80.5829V242.042H80.0635" fill="#D62E1F"/>
<path d="M111.345 242.042H97.7422V308.96H113.063V242.242H112.943C112.411 242.232 111.881 242.158 111.365 242.022" fill="#D62E1F"/>
<path d="M132.396 242.042C131.882 242.186 131.351 242.259 130.818 242.262H130.219V308.98H145.52V242.022H132.396V242.042Z" fill="#D62E1F"/>
<path d="M162.703 242.042V309H178.004V242.062H162.703V242.042Z" fill="#D62E1F"/>
<path d="M196.038 242.082H195.199V309H210.52V242.062H196.038" fill="#D62E1F"/>
<path d="M228.518 242.082H227.719V309H243.04V242.062H228.518" fill="#D62E1F"/>
<path d="M47.4241 242.042H32.7422V308.96H48.0434V242.042H47.4042" fill="#D62E1F"/>
<path d="M334.386 24.7296L310.795 79.7619H301.386L277.116 24.8494L275.119 87.1128H261.875L264.751 2.63672H281.651L306.4 59.2271C314.55 40.2704 322.52 21.094 330.371 2.63672H346.771L349.647 87.1128H336.383L334.386 24.7296Z" fill="#D62E1F"/>
<path d="M414.191 71.552H377.356L371.783 87.1128H358.359L388.482 2.63672H403.504L433.667 87.1128H419.684L414.111 71.552H414.191ZM382.63 56.7102H408.897L395.753 19.9754L382.61 56.7901L382.63 56.7102Z" fill="#D62E1F"/>
<path d="M509.531 107.528C506.945 107.417 504.414 106.745 502.113 105.558C499.812 104.372 497.797 102.699 496.207 100.657L486.04 89.071C484.142 89.4173 482.215 89.5779 480.287 89.5504C456.216 89.5504 440.336 68.6761 440.336 44.0464C440.336 16.2805 458.454 0.240234 480.287 0.240234C502.12 0.240234 520.238 16.2206 520.238 44.0464C520.238 60.9456 512.847 76.0071 500.482 83.7575L503.638 87.1334C506.654 90.3894 509.371 91.8875 512.208 91.8875C515.044 91.8875 517.581 90.1896 520.198 88.5117L524.193 101.795C519.951 105.139 514.815 107.154 509.431 107.588M453.899 43.9465C453.899 62.1641 466.084 74.7286 480.267 74.7286C494.449 74.7286 506.634 62.184 506.634 43.9465C506.634 25.7089 494.17 15.102 480.267 15.102C466.364 15.102 453.899 25.7289 453.899 43.9465Z" fill="#D62E1F"/>
<path d="M582.724 21.7133C575.347 17.5744 567.104 15.221 558.654 14.8417C550.404 14.8417 543.892 17.3786 543.892 23.8906C543.892 31.9807 554.239 33.6586 564.986 37.0544C576.771 40.7898 589.156 46.4629 589.156 62.8827C589.156 79.3025 575.293 90.0293 558.953 90.0293C548.744 89.7797 538.744 87.0877 529.789 82.1789L533.045 67.3372C540.336 71.3323 549.645 75.0677 558.354 75.0677C568.042 75.0677 575.912 72.2911 575.912 63.3621C575.912 56.3707 567.662 54.0735 558.174 51.3768C545.51 47.6414 530.748 42.4478 530.748 24.9493C530.748 9.4284 542.254 0 558.374 0C568.112 0.301235 577.695 2.51385 586.579 6.51199L582.744 21.7133H582.724Z" fill="#D62E1F"/>
<path d="M658.128 51.6365V2.63672H671.372V51.2769C671.372 76.7456 655.172 90.5087 636.275 90.5087C617.378 90.5087 601.258 76.7456 601.258 51.2769V2.63672H614.482V51.6365C614.482 66.4782 623.97 75.607 636.355 75.607C648.739 75.607 658.328 66.5581 658.328 51.6365" fill="#D62E1F"/>
<path d="M679.723 2.65723H745.502V17.499H719.234V87.1333H705.99V17.499H679.723V2.65723Z" fill="#D62E1F"/>
<path d="M276.064 196.359H262.84V111.883H278.281L318.751 175.485V111.883H331.995V196.359H316.554L276.064 132.757V196.359Z" fill="#D62E1F"/>
<path d="M397.513 180.778H360.579L355.006 196.338H341.582L371.705 111.862H386.766L416.889 196.338H402.907L397.513 180.778ZM365.952 165.936H392.12L378.976 129.121L365.832 165.936H365.952Z" fill="#D62E1F"/>
<path d="M483.407 198.036C477.414 198.036 472.76 195.139 468.445 188.268C464.13 181.396 460.295 173.067 456.08 165.935H439.68V196.338H426.477V111.862H460.615C464.097 111.778 467.559 112.407 470.79 113.708C474.021 115.01 476.952 116.958 479.404 119.432C481.856 121.906 483.776 124.855 485.049 128.097C486.321 131.34 486.918 134.808 486.802 138.289C487.004 143.721 485.529 149.083 482.577 153.647C479.625 158.21 475.339 161.755 470.303 163.798L478.652 178.28C479.215 179.441 480.083 180.426 481.163 181.13C482.244 181.834 483.496 182.23 484.785 182.275C487.46 181.894 489.944 180.669 491.876 178.78L495.871 192.063C492.648 195.597 488.18 197.745 483.407 198.056M439.72 126.704V151.693H458.417C467.726 151.693 473.579 147.358 473.579 138.289C473.579 131.058 468.505 126.704 460.635 126.704H439.72Z" fill="#D62E1F"/>
<path d="M518.759 111.883H505.516V196.359H518.759V111.883Z" fill="#D62E1F"/>
<path d="M549.263 154.85L583.781 111.883H600.56L565.663 154.231L600.96 196.359H582.822L549.263 155.569V196.359H536.02V111.883H549.263V154.85Z" fill="#D62E1F"/>
<path d="M669.178 134.455C669.183 137.461 668.593 140.439 667.441 143.216C666.289 145.994 664.598 148.515 662.466 150.635C665.907 152.608 668.743 155.484 670.669 158.951C672.594 162.419 673.536 166.347 673.392 170.31C673.392 185.871 661.887 196.278 646.825 196.278H610.07V111.862H644.987C657.832 111.862 669.258 120.192 669.258 134.435M623.314 126.704V146.5H642.79C650.94 146.5 655.934 142.644 655.934 135.393C655.934 129.84 651.519 126.704 644.628 126.704H623.234H623.314ZM623.314 160.383V181.537H645.946C654.396 181.537 660.149 177.302 660.149 169.831C660.149 163.838 655.155 160.423 647.964 160.423L623.314 160.383Z" fill="#D62E1F"/>
<path d="M733.099 180.778H696.205L690.631 196.338H677.168L707.331 111.862H722.392L752.515 196.338H738.533L733.099 180.778ZM701.538 165.936H727.806L714.662 129.121L701.518 165.936H701.538Z" fill="#D62E1F"/>
<path d="M780.24 147L800.095 111.883H816.595L786.752 162.201V196.359H773.428V162.441L742.926 111.883H760.105L780.24 147Z" fill="#D62E1F"/>
<path d="M825.223 111.883H882.772V126.725H838.466V146.021H878.277V160.883H838.466V181.517H883.631V196.359H825.223V111.883Z" fill="#D62E1F"/>
<path d="M927.3 179.22L951.27 111.883H964.694L934.571 196.359H919.529L889.406 111.883H903.309L927.3 179.22Z" fill="#D62E1F"/>
<path d="M318.848 270.107V221.107H332.092V269.668C332.092 295.136 315.892 308.899 296.995 308.899C278.098 308.899 261.898 295.136 261.898 269.668V221.107H275.142V270.107C275.142 284.949 284.63 294.078 297.015 294.078C309.4 294.078 318.888 285.029 318.888 270.107" fill="#D62E1F"/>
<path d="M361.634 305.584H348.391V221.107H363.832L404.302 284.709V221.107H417.546V305.584H402.105L361.634 241.982V305.584Z" fill="#D62E1F"/>
<path d="M448.072 221.107H434.828V305.584H448.072V221.107Z" fill="#D62E1F"/>
<path d="M495.53 288.445L519.52 221.107H532.944L502.821 305.584H487.759L457.656 221.107H471.559L495.53 288.445Z" fill="#D62E1F"/>
<path d="M542.555 221.107H600.084V235.949H555.778V255.265H595.59V270.107H555.778V290.742H600.963V305.584H542.555V221.107Z" fill="#D62E1F"/>
<path d="M671.357 307.282C665.364 307.282 660.71 304.386 656.395 297.514C652.08 290.642 648.245 282.313 644.03 275.181H627.63V305.624H614.387V221.108H648.525C652.007 221.024 655.47 221.653 658.7 222.954C661.931 224.256 664.862 226.204 667.314 228.678C669.766 231.152 671.687 234.101 672.959 237.343C674.231 240.586 674.828 244.054 674.712 247.535C674.906 252.96 673.427 258.313 670.475 262.869C667.524 267.425 663.243 270.963 658.213 273.004L666.563 287.486C667.111 288.666 667.973 289.671 669.055 290.394C670.136 291.116 671.396 291.527 672.695 291.581C675.37 291.2 677.854 289.975 679.786 288.086L683.781 301.369C680.558 304.903 676.09 307.051 671.317 307.362M627.63 235.95V260.939H646.327C655.636 260.939 661.489 256.604 661.489 247.535C661.489 240.304 656.415 235.95 648.545 235.95H627.63Z" fill="#D62E1F"/>
<path d="M741.587 240.184C734.211 236.045 725.967 233.692 717.517 233.313C709.267 233.313 702.755 235.85 702.755 242.361C702.755 250.352 713.122 252.129 723.849 255.525C735.635 259.261 748.019 264.934 748.019 281.354C748.019 297.773 734.216 308.5 717.816 308.5C707.608 308.251 697.607 305.559 688.652 300.65L691.908 285.808C699.199 289.803 708.508 293.539 717.237 293.539C726.925 293.539 734.796 290.762 734.796 281.833C734.796 274.842 726.546 272.544 717.057 269.848C704.393 266.112 689.631 260.919 689.631 243.42C689.631 227.979 701.137 218.551 717.257 218.551C726.995 218.852 736.578 221.065 745.462 225.063L741.627 240.264L741.587 240.184Z" fill="#D62E1F"/>
<path d="M774.209 221.107H760.965V305.584H774.209V221.107Z" fill="#D62E1F"/>
<path d="M783.516 221.107H849.295V235.949H823.027V305.584H809.783V235.949H783.516V221.107Z" fill="#D62E1F"/>
<path d="M887.287 256.224L907.142 221.107H923.642L893.819 271.426V305.584H880.475V271.665L849.973 221.107H867.151L887.287 256.224Z" fill="#D62E1F"/>
</g>
<defs>
<clipPath id="clip0_1199_1527">
<rect width="964.694" height="309" fill="white"/>
</clipPath>
</defs>
</svg>
