<svg width="24" height="24" viewBox="0 0 24 24" fill="none" xmlns="http://www.w3.org/2000/svg">
<path d="M6.33822 14.2565C6.45542 13.3245 6.85342 12.8027 7.60344 12.2678C8.67659 11.5433 10.0171 11.9531 10.0171 11.9531V9.52203C10.343 9.51403 10.669 9.53258 10.9914 9.57747V12.7061C10.9914 12.7061 9.65125 12.2963 8.5781 13.0211C7.82849 13.5557 7.42967 14.0779 7.31288 15.0098C7.30921 15.5159 7.4081 16.1775 7.86349 16.7495C7.7509 16.694 7.63614 16.6308 7.5192 16.5599C6.51606 15.913 6.33333 14.9424 6.33822 14.2565ZM16.5264 5.02689C15.7881 4.24998 15.509 3.46558 15.4081 2.91455H16.3367C16.3367 2.91455 16.1516 4.35936 17.501 5.7802L17.5197 5.7993C17.156 5.57959 16.8225 5.32024 16.5264 5.02689ZM21 7.22951V10.2952C21 10.2952 19.815 10.2506 18.938 10.0363C17.7135 9.73667 16.9264 9.27704 16.9264 9.27704C16.9264 9.27704 16.3827 8.94927 16.3388 8.92642V15.2571C16.3388 15.6096 16.2382 16.4899 15.9318 17.2241C15.5318 18.1845 14.9144 18.815 14.8009 18.9438C14.8009 18.9438 14.05 19.796 12.7254 20.3699C11.5314 20.8876 10.4831 20.8745 10.1697 20.8876C10.1697 20.8876 8.35753 20.9565 6.72686 19.9388C6.37424 19.7144 6.04508 19.4604 5.74365 19.1798L5.75179 19.1854C7.38287 20.2032 9.19464 20.1343 9.19464 20.1343C9.5084 20.1212 10.5567 20.1343 11.7503 19.6166C13.0738 19.0427 13.8258 18.1905 13.8258 18.1905C13.9381 18.0617 14.5583 17.4312 14.9567 16.4704C15.2624 15.7366 15.3637 14.8559 15.3637 14.5034V8.17349C15.4076 8.19671 15.9509 8.52448 15.9509 8.52448C15.9509 8.52448 16.7384 8.98449 17.9629 9.28379C18.8403 9.49805 20.025 9.54263 20.025 9.54263V7.14035C20.4303 7.22764 20.7758 7.25123 21 7.22951Z" fill="#EE1D52"/>
<path d="M20.0254 7.14035V9.54188C20.0254 9.54188 18.8407 9.4973 17.9634 9.28304C16.7388 8.98336 15.9514 8.52373 15.9514 8.52373C15.9514 8.52373 15.4081 8.19596 15.3641 8.17274V14.5041C15.3641 14.8566 15.2636 15.7373 14.9572 16.4711C14.5571 17.432 13.9398 18.0624 13.8262 18.1913C13.8262 18.1913 13.075 19.0435 11.7508 19.6174C10.5572 20.135 9.50883 20.1219 9.19507 20.135C9.19507 20.135 7.3833 20.204 5.75222 19.1862L5.74408 19.1806C5.57187 19.0204 5.40978 18.8513 5.25858 18.6741C4.73808 18.0647 4.41903 17.3439 4.33886 17.1383C4.33872 17.1374 4.33872 17.1365 4.33886 17.1357C4.20986 16.7783 3.93882 15.9201 3.97586 15.0889C4.04138 13.6223 4.57856 12.7222 4.72059 12.4967C5.09674 11.8817 5.58597 11.3315 6.1665 10.8706C6.67879 10.4728 7.25945 10.1563 7.88467 9.93408C8.56055 9.67316 9.28431 9.53331 10.0171 9.52203V11.9531C10.0171 11.9531 8.67661 11.5448 7.60387 12.2678C6.85385 12.8027 6.45585 13.3245 6.33864 14.2565C6.33376 14.9424 6.51648 15.913 7.51882 16.5603C7.63575 16.6315 7.75051 16.6946 7.8631 16.7498C8.03821 16.9684 8.25134 17.1589 8.49388 17.3136C9.47302 17.9088 10.2934 17.9504 11.3426 17.5638C12.0421 17.3054 12.5687 16.7229 12.8129 16.0774C12.9663 15.6744 12.9643 15.2687 12.9643 14.8491V2.91455H15.406C15.507 3.46558 15.7861 4.24998 16.5244 5.02689C16.8205 5.32024 17.154 5.57959 17.5177 5.7993C17.6252 5.90606 18.1746 6.43387 18.8798 6.75789C19.2445 6.92538 19.6289 7.05371 20.0254 7.14035Z" fill="white"/>
<path d="M3.36694 16.3916V16.3935L3.42753 16.5512C3.42057 16.5328 3.39806 16.477 3.36694 16.3916Z" fill="#69C9D0"/>
<path d="M7.88461 9.93425C7.25939 10.1565 6.67873 10.473 6.16644 10.8707C5.58572 11.3327 5.09661 11.8841 4.72093 12.5002C4.57891 12.725 4.04172 13.6259 3.9762 15.0924C3.93917 15.9236 4.2102 16.7818 4.33921 17.1392C4.33907 17.1401 4.33907 17.141 4.33921 17.1418C4.4206 17.3456 4.73843 18.0663 5.25893 18.6777C5.41012 18.8549 5.57222 19.024 5.74443 19.1841C5.19268 18.8329 4.7006 18.4082 4.28427 17.924C3.76825 17.3198 3.45001 16.6065 3.36699 16.396C3.36689 16.3945 3.36689 16.393 3.36699 16.3915V16.3889C3.23758 16.0319 2.96573 15.1733 3.00358 14.341C3.0691 12.8744 3.60628 11.9743 3.74831 11.7488C4.12388 11.1326 4.613 10.5812 5.19382 10.1193C5.706 9.72139 6.28669 9.40489 6.91199 9.18282C7.30202 9.03386 7.70833 8.92397 8.1239 8.85505C8.75019 8.75441 9.38984 8.74569 10.0191 8.8292V9.5222C9.2856 9.53325 8.56113 9.6731 7.88461 9.93425Z" fill="#69C9D0"/>
<path d="M15.4081 2.91482H12.9663V14.8498C12.9663 15.2693 12.9663 15.6739 12.815 16.0781C12.5683 16.7231 12.0438 17.3056 11.3446 17.5641C10.2951 17.9522 9.47467 17.9091 8.49594 17.3139C8.25297 17.1599 8.03929 16.97 7.86353 16.752C8.69738 17.1614 9.44374 17.1543 10.3683 16.8127C11.0671 16.5542 11.5925 15.9717 11.8383 15.3263C11.9921 14.9232 11.9901 14.5175 11.9901 14.0983V2.16113H15.3617C15.3617 2.16113 15.3238 2.45781 15.4081 2.91482ZM20.0254 6.47647V7.14062C19.6296 7.05384 19.2459 6.92551 18.8819 6.75816C18.1766 6.43414 17.6272 5.90633 17.5198 5.79957C17.6445 5.87491 17.7738 5.94346 17.9072 6.00485C18.7647 6.39892 19.6091 6.51655 20.0254 6.47647Z" fill="#69C9D0"/>
</svg>
